<?xml version="1.0" encoding="UTF-8"?>
<svg version="1.1" xmlns="http://www.w3.org/2000/svg" width="1091" height="627">
<path d="M0 0 C360.03 0 720.06 0 1091 0 C1091 206.91 1091 413.82 1091 627 C730.97 627 370.94 627 0 627 C0 420.09 0 213.18 0 0 Z " fill="#FEFEFE" transform="translate(0,0)"/>
<path d="M0 0 C0.71639648 0.28407715 1.43279297 0.5681543 2.17089844 0.86083984 C22.81882362 9.2114365 39.55678848 23.63445383 48.47192383 44.43286133 C53.65188424 56.94635841 55.5089075 69.30735106 55.39111328 82.75854492 C55.37503498 84.93276911 55.39106098 87.10512852 55.41015625 89.27929688 C55.44989923 114.41211799 47.17634354 136.47207533 30 155 C26.82958964 157.92731181 23.52418985 160.51330529 20 163 C19.25492188 163.53238281 18.50984375 164.06476563 17.7421875 164.61328125 C-3.22090832 178.36365088 -32.44947104 181.2892271 -56.625 176.8125 C-79.02794895 171.77761044 -98.02129842 160.64599674 -110.8125 141.3125 C-113.98839025 136.24142329 -116.54983706 130.94551391 -118.875 125.4375 C-119.14932861 124.79014893 -119.42365723 124.14279785 -119.70629883 123.47583008 C-124.13886913 112.30971868 -125.4948901 101.2352632 -125.39111328 89.31689453 C-125.37506469 87.13379984 -125.39103689 84.95256947 -125.41015625 82.76953125 C-125.44623276 58.92430065 -117.82519345 35.83695314 -100.8359375 18.6796875 C-75.48792189 -5.27174322 -32.41382179 -13.3883177 0 0 Z " fill="#FFD601" transform="translate(777,395)"/>
<path d="M0 0 C0.71493622 0.00086609 1.42987244 0.00173218 2.16647339 0.00262451 C14.20579694 0.04039847 14.20579694 0.04039847 16.625 1.25 C18.66342398 1.54210406 20.7024145 1.83082553 22.74414062 2.09887695 C45.13159673 5.12414991 65.27965527 14.64281109 80 32.125 C92.59421937 48.9172925 97.00210087 67.17004006 96.94067383 87.78222656 C96.93752443 89.98293172 96.96102045 92.18227334 96.98632812 94.3828125 C97.09260863 117.75340417 90.31891053 139.55247689 74.1328125 156.8359375 C66.28304432 164.3922564 57.53613305 169.82418957 47.625 174.25 C46.53703125 174.7553125 45.4490625 175.260625 44.328125 175.78125 C40.1533072 177.43708491 36.07031436 178.45035562 31.6875 179.375 C30.92759766 179.54386719 30.16769531 179.71273437 29.38476562 179.88671875 C19.46876605 182.03758459 9.94552943 182.45518628 -0.1875 182.4375 C-1.22053757 182.43609512 -1.22053757 182.43609512 -2.27444458 182.43466187 C-45.2255349 182.30812062 -45.2255349 182.30812062 -57.68300915 170.96149349 C-63.686003 164.88930646 -64.95573415 159.6147646 -65.06375122 151.13050842 C-65.05520111 149.81441086 -65.046651 148.49831329 -65.0378418 147.14233398 C-65.0462661 145.72394469 -65.05679614 144.30556659 -65.06925964 142.88720703 C-65.09620845 139.05448804 -65.09163448 135.22242262 -65.07955909 131.38965106 C-65.0724064 128.18379315 -65.08094122 124.97805448 -65.08946449 121.77220589 C-65.1093842 114.20813451 -65.10388291 106.64437945 -65.08178711 99.08032227 C-65.05940976 91.28765788 -65.07704529 83.49582135 -65.11483639 75.70323509 C-65.14609872 68.99977112 -65.1539783 62.29656304 -65.14288265 55.59303528 C-65.13640611 51.59484475 -65.1383473 47.59713204 -65.16220665 43.59899712 C-65.18349864 39.84012358 -65.17543127 36.08241651 -65.14511299 32.32361603 C-65.1357984 30.29372512 -65.15594078 28.26376539 -65.17706299 26.23396301 C-65.05038957 16.26208991 -65.05038957 16.26208991 -61.48542786 11.96937561 C-59.04238495 9.59390809 -56.68902309 8.04944712 -53.4375 6.9375 C-52.64472656 6.65261719 -51.85195312 6.36773437 -51.03515625 6.07421875 C-50.15730469 5.80222656 -49.27945313 5.53023437 -48.375 5.25 C-47.33085938 4.91871094 -46.28671875 4.58742187 -45.2109375 4.24609375 C-30.47806836 0.42034871 -15.14194165 -0.03533907 0 0 Z " fill="#C62929" transform="translate(127.375,154.75)"/>
<path d="M0 0 C0.79792969 0.63679688 1.59585938 1.27359375 2.41796875 1.9296875 C17.39502361 14.42311015 25.39726778 33.02238872 28 52 C28.42413678 56.93879867 28.43474352 61.88027428 28.39111328 66.83398438 C28.37500492 68.99933804 28.39108519 71.16282651 28.41015625 73.328125 C28.44427833 96.61405351 21.73444933 119.38537761 5.0390625 136.1796875 C-4.43473513 145.20678348 -14.67215726 150.78568954 -27 155 C-27.71373779 155.25257568 -28.42747559 155.50515137 -29.1628418 155.76538086 C-56.28701323 165.17747126 -93.26694894 165.06723788 -120 154 C-125.99202376 150.81448134 -130.40814473 146.31374818 -133 140 C-133.72459037 135.29496888 -133.69372188 130.64563022 -133.6628418 125.89233398 C-133.6712661 124.47394469 -133.68179614 123.05556659 -133.69425964 121.63720703 C-133.72120845 117.80448804 -133.71663448 113.97242262 -133.70455909 110.13965106 C-133.6974064 106.93379315 -133.70594122 103.72805448 -133.71446449 100.52220589 C-133.7343842 92.95813451 -133.72888291 85.39437945 -133.70678711 77.83032227 C-133.68440976 70.03765788 -133.70204529 62.24582135 -133.73983639 54.45323509 C-133.77109872 47.74977112 -133.7789783 41.04656304 -133.76788265 34.34303528 C-133.76140611 30.34484475 -133.7633473 26.34713204 -133.78720665 22.34899712 C-133.80849864 18.59012358 -133.80043127 14.83241651 -133.77011299 11.07361603 C-133.7607984 9.04372512 -133.78094078 7.01376539 -133.80206299 4.98396301 C-133.67538656 -4.98814752 -133.67538656 -4.98814752 -130.12947083 -9.26914978 C-102.0073152 -36.68451519 -26.40334664 -22.03879997 0 0 Z " fill="#FFD601" transform="translate(400,412)"/>
<path d="M0 0 C1 1 1 1 1.375 4.8125 C1.30728987 7.97794842 1.22510016 8.72987981 -0.875 11.25 C-6.37255814 14.32863256 -11.63118897 17 -18 17 C-18 19.97 -18 22.94 -18 26 C-16.4840625 25.9071875 -16.4840625 25.9071875 -14.9375 25.8125 C11.3695115 26.04125662 38.35323645 40.41574385 58 57 C59.44826172 58.22009766 59.44826172 58.22009766 60.92578125 59.46484375 C78.63413011 74.96883383 94.88317205 98.86816133 97 123 C97 126.63 97 130.26 97 134 C11.2 134 -74.6 134 -163 134 C-163 105.9235796 -150.50188004 83.1021206 -131.4375 63.0625 C-107.15944669 39.4145641 -75.37737626 27.3343259 -42 25 C-42 22.36 -42 19.72 -42 17 C-42.70125 16.92523438 -43.4025 16.85046875 -44.125 16.7734375 C-50.98564105 15.82264214 -56.26158022 14.27744637 -61 9 C-62.25 5.9375 -62.25 5.9375 -62 3 C-59.25978575 -1.17525537 -56.73954504 -2.94175589 -52.125 -4.75 C-51.11695313 -5.15734375 -50.10890625 -5.5646875 -49.0703125 -5.984375 C-33.57879373 -11.10879597 -13.31405528 -9.54885597 0 0 Z " fill="#FFD600" transform="translate(902,146)"/>
<path d="M0 0 C0.65178223 0.23525391 1.30356445 0.47050781 1.97509766 0.71289062 C10.00232636 3.63042156 16.68758827 7.24923419 23 13 C23.69738281 13.61746094 24.39476562 14.23492187 25.11328125 14.87109375 C36.46291886 25.49401257 40.54667405 37.76354884 41.06640625 52.93896484 C41.27402326 60.28341656 41.32850108 66.931336 39 74 C38.72800781 74.84304688 38.45601562 75.68609375 38.17578125 76.5546875 C36.08817589 82.1657173 33.41194384 86.48694092 29.5859375 91.08984375 C27.84566214 93.11804906 27.84566214 93.11804906 26 96 C25.34 96 24.68 96 24 96 C24 96.66 24 97.32 24 98 C22.03062339 99.62356346 20.06654852 101.13559566 18 102.625 C17.42765625 103.04523438 16.8553125 103.46546875 16.265625 103.8984375 C14.84796067 104.93805801 13.42450738 105.96977591 12 107 C14.65426696 111.8661561 17.52391203 116.19144064 21 120.5 C21.47276367 121.09530518 21.94552734 121.69061035 22.43261719 122.30395508 C24.98003405 125.50576575 27.55500403 128.68446962 30.140625 131.85546875 C45.69169718 150.96835559 45.69169718 150.96835559 46.375 157.6875 C43.58579152 164.40695679 38.40974085 169.59891302 32 173 C24.28383712 175.75577246 13.90707037 176.89837906 6.125 173.875 C4.578125 172.946875 4.578125 172.946875 3 172 C2.39285156 171.66742187 1.78570313 171.33484375 1.16015625 170.9921875 C-5.63677052 166.71214252 -9.4566892 159.87435443 -13.61425781 153.21826172 C-15.07011382 150.88776353 -16.54505114 148.5701702 -18.0234375 146.25390625 C-18.53398682 145.45017578 -19.04453613 144.64644531 -19.57055664 143.81835938 C-20.60447014 142.19319739 -21.6427063 140.57077716 -22.68530273 138.95117188 C-25.3366337 134.7961581 -27.77169652 130.6909086 -29.77612305 126.18334961 C-31.21078759 123.59351819 -33.16722028 121.3251683 -35 119 C-39.95 119 -44.9 119 -50 119 C-50.33 136.82 -50.66 154.64 -51 173 C-58.84756003 174.74390223 -65.17292432 175.36598849 -73.0625 175.375 C-74.19494141 175.39949219 -75.32738281 175.42398438 -76.49414062 175.44921875 C-83.49407441 175.47367979 -88.06146483 174.77843641 -94 171 C-98.98631112 166.01368888 -100.24299512 160.57347153 -100.28088379 153.66896057 C-100.29230408 152.41711975 -100.30372437 151.16527893 -100.31549072 149.87550354 C-100.31798092 148.50106852 -100.32023123 147.12663304 -100.32226562 145.75219727 C-100.33153124 144.29470319 -100.34158181 142.83721393 -100.35235596 141.37973022 C-100.37851166 137.43139606 -100.39147467 133.48312976 -100.40037727 129.53472257 C-100.40625128 127.06586825 -100.41446304 124.59703224 -100.42338562 122.12818718 C-100.45070586 114.3973352 -100.4700559 106.66652536 -100.4777894 98.93562847 C-100.48675602 90.02234236 -100.52188797 81.10966887 -100.57979059 72.19656903 C-100.62304687 65.29786923 -100.64319898 58.39934172 -100.64587164 51.50050777 C-100.64796538 47.38373555 -100.659729 43.26754037 -100.69551086 39.15091133 C-100.72851532 35.27890411 -100.73276489 31.40790649 -100.71523285 27.53580856 C-100.7136945 26.11805322 -100.72234689 24.70024307 -100.74214935 23.2826252 C-100.90026545 11.25462906 -100.90026545 11.25462906 -97.08483887 6.69004822 C-77.65448034 -11.89439243 -23.28373477 -9.00391063 0 0 Z " fill="#FFD601" transform="translate(572,396)"/>
<path d="M0 0 C0.71752441 0.21873779 1.43504883 0.43747559 2.17431641 0.6628418 C18.63640874 5.84838229 32.27022191 15.70772981 40.80810547 30.87182617 C45.50278341 40.03940503 46.94610278 48.77902191 46.8125 59 C46.80226807 60.18335938 46.79203613 61.36671875 46.78149414 62.5859375 C46.39038654 78.73546834 40.77084485 91.41972382 30.25 103.6875 C12.86044832 118.754574 -5.78409493 120.87221779 -27.8125 120.75 C-33.071875 120.729375 -38.33125 120.70875 -43.75 120.6875 C-43.75 137.8475 -43.75 155.0075 -43.75 172.6875 C-51.7923666 175.36828887 -58.04352278 175.93015024 -66.5 176 C-67.655 176.02900391 -68.81 176.05800781 -70 176.08789062 C-77.71947424 176.14516983 -83.33349992 175.53471471 -89.3561945 170.28834343 C-95.18323371 163.59574722 -94.19610497 153.4678926 -94.18579102 145.19091797 C-94.19478247 143.74283069 -94.20499388 142.29475056 -94.21632385 140.84667969 C-94.24267461 136.93773738 -94.24985059 133.0289924 -94.25177121 129.11996984 C-94.2539109 126.67437179 -94.26032896 124.22882317 -94.26826286 121.78323746 C-94.29595795 113.24234098 -94.30827461 104.70158443 -94.3059082 96.16064453 C-94.30410335 88.2117966 -94.3358234 80.26355776 -94.38313919 72.31486404 C-94.42239421 65.47553486 -94.43845892 58.63640475 -94.43654197 51.79696381 C-94.43577838 47.71826382 -94.44425659 43.64010687 -94.47607613 39.56151962 C-94.50517297 35.72801449 -94.50532331 31.89557005 -94.48352623 28.06202698 C-94.480396 26.65879385 -94.48743481 25.25549397 -94.5056076 23.85237503 C-94.64971773 11.95167738 -94.64971773 11.95167738 -90.85183716 7.38900757 C-71.47768402 -11.29279762 -23.34105821 -7.22762391 0 0 Z " fill="#FFD601" transform="translate(969.75,395.3125)"/>
<path d="M0 0 C0.99588638 -0.00043808 1.99177277 -0.00087616 3.01783752 -0.00132751 C6.2914732 0.00075329 9.56458916 0.02405129 12.83813477 0.04760742 C15.11499247 0.05320588 17.39185381 0.0574748 19.66871643 0.06047058 C25.64791929 0.07189958 31.62690193 0.10135024 37.60601807 0.13458252 C43.71265688 0.16532523 49.81933142 0.17898491 55.92602539 0.1940918 C67.89812711 0.22622162 79.87006571 0.27739461 91.84204102 0.34057617 C92.48961727 1.77729185 93.13503554 3.21498033 93.77954102 4.65307617 C94.31901367 5.85383789 94.31901367 5.85383789 94.86938477 7.07885742 C97.80253228 13.89930888 98.38702694 22.86544454 95.93579102 29.96557617 C93.33740736 34.36284081 90.27750506 36.75481741 85.84204102 39.34057617 C82.61489868 39.85955811 82.61489868 39.85955811 79.10229492 39.88647461 C78.45768311 39.89681229 77.81307129 39.90714996 77.14892578 39.9178009 C75.03855867 39.94707359 72.92915707 39.94872462 70.81860352 39.94995117 C69.3474242 39.96494351 67.87626164 39.98167288 66.40512085 40.00006104 C62.54839273 40.04362929 58.69189161 40.06370996 54.83496094 40.07879639 C50.8931746 40.09840575 46.95163205 40.14037132 43.01000977 40.18041992 C35.2873884 40.25560806 27.5649589 40.30389974 19.84204102 40.34057617 C19.84204102 48.59057617 19.84204102 56.84057617 19.84204102 65.34057617 C21.76508057 65.34468506 23.68812012 65.34879395 25.66943359 65.35302734 C32.01995963 65.37241531 38.37000914 65.41470517 44.72029591 65.47266674 C48.57093421 65.50697272 52.42117429 65.53205217 56.27197266 65.53613281 C59.98762844 65.54040829 63.70238539 65.56880605 67.41776085 65.61400795 C68.83589125 65.62700745 70.2541291 65.6312819 71.67231178 65.62672997 C73.65710636 65.62184261 75.64189753 65.65072302 77.62646484 65.68115234 C78.75675613 65.68781418 79.88704742 65.69447601 81.05158997 65.70133972 C83.84204102 66.34057617 83.84204102 66.34057617 85.68847656 68.75419617 C88.06276237 74.07752711 88.08873472 78.95971887 88.15454102 84.71557617 C88.19804687 85.97241211 88.19804687 85.97241211 88.24243164 87.25463867 C88.29889643 92.77950153 87.65155432 96.04432777 83.84204102 100.34057617 C80.08505516 103.04672862 77.46094195 103.72367145 72.85839844 103.77294922 C71.67755173 103.79274338 70.49670502 103.81253754 69.28007507 103.83293152 C68.01532852 103.83932144 66.75058197 103.84571136 65.44750977 103.85229492 C63.4937719 103.87922173 63.4937719 103.87922173 61.50056458 103.9066925 C58.04994711 103.95408529 54.59939455 103.98396342 51.14855957 104.01013184 C47.62242915 104.03999192 44.09651764 104.08634334 40.57055664 104.1315918 C33.66103441 104.2190541 26.75203865 104.27908801 19.84204102 104.34057617 C19.51204102 114.24057617 19.18204102 124.14057617 18.84204102 134.34057617 C43.26204102 134.34057617 67.68204102 134.34057617 92.84204102 134.34057617 C97.77672204 144.20993823 99.26148806 153.43322413 96.64282227 164.28198242 C94.93532578 168.67149779 91.62270023 170.8201367 87.84204102 173.34057617 C85.95471096 173.60063839 85.95471096 173.60063839 83.79014587 173.61473083 C82.55613541 173.62969353 82.55613541 173.62969353 81.29719543 173.6449585 C80.3979686 173.64562317 79.49874176 173.64628784 78.57226562 173.64697266 C77.62228699 173.65529617 76.67230835 173.66361969 75.69354248 173.67219543 C72.54378181 173.69634515 69.3942283 173.70507587 66.24438477 173.71166992 C64.05302366 173.72063607 61.86166318 173.72975791 59.67030334 173.73902893 C55.06941236 173.7555375 50.46859427 173.76322182 45.86767578 173.76611328 C39.98879164 173.77148333 34.11059913 173.80909883 28.23190975 173.85485744 C23.7012537 173.88469734 19.17076231 173.89183843 14.64001656 173.89283943 C12.47399305 173.89703189 10.3079686 173.9094268 8.14204216 173.93035698 C5.10004872 173.95739976 2.05963286 173.95240597 -0.98242188 173.93994141 C-2.31000771 173.96219284 -2.31000771 173.96219284 -3.66441345 173.9848938 C-10.8853716 173.9012022 -17.20636395 171.67866912 -22.78202915 166.96864986 C-29.62409864 159.46424798 -29.60087586 150.75456954 -29.57788086 141.19848633 C-29.5863504 139.89664902 -29.59481995 138.59481171 -29.60354614 137.25352478 C-29.62565797 133.7017297 -29.62869806 130.15016731 -29.62679863 126.59831285 C-29.62667845 123.62389543 -29.63526192 120.64952646 -29.64357615 117.67512262 C-29.66277303 110.65276657 -29.66570764 103.63052938 -29.65893555 96.6081543 C-29.65229736 89.38482005 -29.67515825 82.16199678 -29.71224928 74.93876612 C-29.74302495 68.71766348 -29.75429783 62.49672455 -29.75041246 56.27554739 C-29.74835305 52.56847615 -29.75369787 48.86180276 -29.77830505 45.15480423 C-29.80486971 41.01668131 -29.79078473 36.87962599 -29.77319336 32.74145508 C-29.7864566 31.5276265 -29.79971985 30.31379791 -29.81338501 29.06318665 C-29.73091268 20.68928146 -28.20775603 13.74827382 -22.40254974 7.43003273 C-15.66729321 1.08000629 -8.93363485 -0.10376456 0 0 Z " fill="#C62929" transform="translate(294.157958984375,161.659423828125)"/>
<path d="M0 0 C1.15568405 -0.00467997 2.31136809 -0.00935994 3.50207287 -0.01418173 C6.7059543 -0.024077 9.90949475 -0.02051617 13.11336768 -0.01122308 C16.5701597 -0.00443765 20.0269055 -0.01491134 23.48368835 -0.02316284 C30.25423559 -0.03650822 37.0246831 -0.03361875 43.79523426 -0.02492492 C49.29802809 -0.01815138 54.80079397 -0.01723022 60.30359077 -0.02049637 C61.47811694 -0.02118592 61.47811694 -0.02118592 62.67637091 -0.0218894 C64.26703986 -0.02284857 65.8577088 -0.02382121 67.44837774 -0.02480717 C82.36724693 -0.03336357 97.28606083 -0.02352332 112.20492096 -0.00740607 C125.00554324 0.00599472 137.8060839 0.00367148 150.60670471 -0.01016235 C165.4704242 -0.02621829 180.33409521 -0.0325368 195.19782215 -0.02332556 C196.78296442 -0.02236991 198.3681067 -0.0214268 199.95324898 -0.02049637 C201.12313497 -0.01980213 201.12313497 -0.01980213 202.31665502 -0.01909386 C207.81222437 -0.01650382 213.30776297 -0.02087534 218.80332756 -0.02793503 C225.50156969 -0.03635049 232.19970635 -0.03406906 238.8979364 -0.0180928 C242.31539817 -0.01021024 245.73268412 -0.00711804 249.15014458 -0.01704025 C252.85483007 -0.02521555 256.55901823 -0.01498187 260.26367188 0 C261.3439226 -0.00669217 262.42417332 -0.01338433 263.53715891 -0.02027929 C269.98608975 0.03044292 274.35885925 0.76944348 279.57398987 4.85140991 C283.41036384 9.02110292 284.40757356 12.16519339 284.36915588 17.81259155 C284.3324176 18.68077515 284.29567932 19.54895874 284.25782776 20.44345093 C284.25589417 21.31550171 284.25396057 22.18755249 284.25196838 23.08602905 C284.14721311 28.2112777 283.58791164 31.99174012 280.69532776 36.38095093 C278.97657776 38.02548218 278.97657776 38.02548218 277.19532776 39.19345093 C276.60751526 39.59177124 276.01970276 39.99009155 275.41407776 40.40048218 C272.22084139 42.22207838 269.56520104 42.50757405 265.97287369 42.515172 C264.99586667 42.51962985 264.01885966 42.52408769 263.01224637 42.52868062 C261.93629421 42.52849626 260.86034205 42.5283119 259.75178528 42.52812195 C258.04025682 42.53363698 258.04025682 42.53363698 256.29415202 42.53926343 C253.12199721 42.54839093 249.9498728 42.5530001 246.7777071 42.55565274 C243.35836292 42.55955596 239.93903372 42.56913425 236.5196991 42.5778656 C228.25981808 42.59762889 219.99993584 42.60769578 211.74003708 42.61659339 C207.85079183 42.62097627 203.96154795 42.62634306 200.07230377 42.63158226 C187.14461169 42.64859396 174.21692046 42.66308852 161.2892189 42.670331 C157.93435414 42.67224091 154.57948937 42.67416124 151.22462463 42.67611694 C149.97386545 42.67684255 149.97386545 42.67684255 148.6978384 42.67758282 C135.1876754 42.68588461 121.67760091 42.71122428 108.16747656 42.74369762 C94.29870381 42.77676143 80.42997604 42.79477912 66.56116366 42.79797524 C58.77358687 42.80014091 50.98613916 42.80889782 43.19860077 42.83443642 C36.56694295 42.85613413 29.93544556 42.86419845 23.30375627 42.85446963 C19.92047305 42.84992214 16.53778953 42.85401426 13.15450668 42.87123108 C9.48499179 42.88886133 5.81631955 42.88188641 2.14680481 42.86869812 C1.07977554 42.87966737 0.01274626 42.89063661 -1.08661723 42.90193826 C-8.21879808 42.8399592 -12.66725725 41.71660728 -18.04685974 36.78329468 C-23.45908782 29.78472389 -23.07774702 21.98610208 -22.58299255 13.4649353 C-21.9891245 9.01821799 -19.75725317 6.0845989 -16.30467224 3.38095093 C-15.67568999 2.86472357 -15.04670774 2.34849621 -14.39866543 1.8166256 C-9.67577895 -0.37488811 -5.14605668 -0.03181418 0 0 Z " fill="#FFD602" transform="translate(738.3046722412109,296.6190490722656)"/>
<path d="M0 0 C4.97674645 6.69946637 5.067956 12.90864037 5.05737305 20.99780273 C5.07266052 22.75497871 5.07266052 22.75497871 5.08825684 24.5476532 C5.11836234 28.40551553 5.1276494 32.26312943 5.13671875 36.12109375 C5.15356723 38.80153665 5.17157281 41.48194679 5.19111633 44.16236877 C5.23470202 50.48740121 5.26329752 56.81240802 5.28643972 63.13754469 C5.3161947 71.04946177 5.36607975 78.96123583 5.41601562 86.87304688 C5.50495027 100.97782108 5.56355424 115.08251981 5.625 129.1875 C37.8 129.6825 37.8 129.6825 70.625 130.1875 C71.945 133.1575 73.265 136.1275 74.625 139.1875 C74.955 139.8475 75.285 140.5075 75.625 141.1875 C76.13522284 149.21369782 76.56950178 156.97858296 72.625 164.1875 C67.78584796 169.02665204 63.15858818 170.40394679 56.38024902 170.48077393 C55.56922729 170.47986755 54.75820557 170.47896118 53.92260742 170.47802734 C53.05690628 170.48474457 52.19120514 170.49146179 51.29927063 170.49838257 C48.44294462 170.51734951 45.58685378 170.52128622 42.73046875 170.5234375 C40.73895675 170.52986673 38.74744569 170.53659518 36.75593567 170.54360962 C32.58230399 170.55557941 28.40875506 170.55929079 24.23510742 170.55810547 C18.89872471 170.55790239 13.56287521 170.58519453 8.22661877 170.61964989 C4.11295659 170.64193737 -0.00057769 170.64594243 -4.11429405 170.64488602 C-6.08099898 170.64723957 -8.04770756 170.65604919 -10.0143528 170.67155075 C-12.77141782 170.69124645 -15.52733859 170.68535857 -18.28442383 170.67333984 C-19.08937286 170.68457886 -19.8943219 170.69581787 -20.72366333 170.70739746 C-27.67102664 170.63081691 -32.64714321 168.34441002 -38.0625 164.0625 C-45.20572816 155.18172985 -46.09009379 147.16937507 -45.94262695 136.00732422 C-45.94121402 134.49847969 -45.94201324 132.98963173 -45.94483948 131.48078918 C-45.94626551 127.4130226 -45.91700917 123.3460034 -45.88196969 119.27840948 C-45.85056927 115.01703595 -45.84776472 110.75564252 -45.84184265 106.49417114 C-45.8263442 98.43720758 -45.78537035 90.38058599 -45.7350952 82.32377255 C-45.67907672 73.14601281 -45.6516839 63.96823615 -45.62661803 54.79034781 C-45.57445057 35.9225385 -45.4865867 17.05504681 -45.375 -1.8125 C-43.93771488 -2.30041945 -42.49965809 -2.78606613 -41.0612793 -3.27075195 C-40.26054489 -3.54143997 -39.45981049 -3.81212799 -38.6348114 -4.09101868 C-26.32366428 -8.02155142 -10.43437823 -7.96307812 0 0 Z " fill="#C62929" transform="translate(478.375,164.8125)"/>
<path d="M0 0 C0.95970703 -0.02900391 1.91941406 -0.05800781 2.90820312 -0.08789062 C10.50434298 -0.15529664 16.03953003 1.24737134 21.5625 6.625 C24.72720279 11.85893153 25.43760613 17.12079874 25.42800903 23.15257263 C25.42971788 23.80375488 25.43142673 24.45493713 25.43318737 25.12585217 C25.43645738 27.28771139 25.42552024 29.4492538 25.41455078 31.61108398 C25.41398613 33.16874687 25.41430429 34.7264103 25.41543579 36.28407288 C25.41600819 40.49844699 25.40427218 44.7127066 25.39028788 48.92705417 C25.37776168 53.33662249 25.37660853 57.74619361 25.37423706 62.15577698 C25.36802784 70.49957099 25.35162458 78.84331242 25.33153808 87.1870833 C25.30916171 96.68887125 25.29818128 106.19066173 25.28814721 115.69246948 C25.26725786 135.23250943 25.23209274 154.77250048 25.1875 174.3125 C23.75646925 174.64241506 22.32468512 174.96906337 20.89259338 175.29434204 C20.09535134 175.47659647 19.2981093 175.6588509 18.47670841 175.84662819 C13.41504389 176.8767165 8.26895598 176.68162455 3.125 176.6875 C1.99255859 176.71199219 0.86011719 176.73648438 -0.30664062 176.76171875 C-7.74749481 176.78772057 -13.67098518 176.07569375 -19.32788086 170.93554688 C-23.9980557 165.78988467 -25.06397109 160.47016002 -25.05300903 153.70657349 C-25.05575836 152.39413162 -25.05850769 151.08168976 -25.06134033 149.72947693 C-25.05426334 148.28726104 -25.04699374 146.84504608 -25.03955078 145.40283203 C-25.03898626 143.87487292 -25.03930402 142.34691326 -25.04043579 140.81895447 C-25.04100873 136.68096421 -25.02926398 132.54309031 -25.01528788 128.40512705 C-25.00277068 124.07696532 -25.00160924 119.74880082 -24.99923706 115.42062378 C-24.9930252 107.22908468 -24.97661836 99.03759908 -24.95653808 90.84608352 C-24.93416993 81.51843892 -24.92318335 72.19079174 -24.91314721 62.86312699 C-24.89225188 43.67955435 -24.85708161 24.49603148 -24.8125 5.3125 C-23.3709098 4.658621 -21.92790237 4.00786589 -20.48429871 3.35844421 C-19.68087634 2.99572261 -18.87745398 2.633001 -18.04968548 2.25928783 C-12.23331211 -0.20222982 -6.21302536 0.06184166 0 0 Z " fill="#C62929" transform="translate(615.8125,158.6875)"/>
<path d="M0 0 C8.78213472 7.41690002 13.48069558 16.03024109 16.17578125 27.08203125 C16.34634033 27.665896 16.51689941 28.24976074 16.69262695 28.85131836 C20.37319082 45.84440175 18.35808287 66.98290212 8.86328125 81.76953125 C2.59168718 89.7135504 -5.59372646 95.05936799 -15.78515625 96.32568359 C-27.34397155 97.2844422 -37.43685986 95.63497023 -46.76171875 88.20703125 C-54.78586627 80.5139772 -58.62984376 71.07028119 -59.82421875 60.08203125 C-60.15421875 59.75203125 -60.48421875 59.42203125 -60.82421875 59.08203125 C-61.08031177 54.54638718 -61.00945905 49.99903429 -61.01171875 45.45703125 C-61.02396484 44.18472656 -61.03621094 42.91242188 -61.04882812 41.6015625 C-61.05858635 35.36280235 -61.00778911 29.94647736 -58.82421875 24.08203125 C-58.55222656 23.16679687 -58.28023437 22.2515625 -58 21.30859375 C-54.27319641 10.07759288 -47.29398618 1.54733078 -36.7421875 -4.015625 C-25.21887013 -8.61212451 -10.19876717 -6.92613372 0 0 Z " fill="#FFFEFC" transform="translate(763.82421875,435.91796875)"/>
<path d="M0 0 C13.37256931 0.18278161 23.12832051 3.76133578 32.78491211 13.3828125 C43.82917717 25.54610001 44.70855517 41.96665875 44.21069336 57.546875 C43.82640033 64.32991752 42.58800493 70.14834743 39.78491211 76.3828125 C39.47295898 77.14207031 39.16100586 77.90132813 38.83959961 78.68359375 C34.15991351 89.12440602 26.36246242 94.31810774 16.23022461 99.0390625 C10.77143376 101.02337725 5.27218679 100.74448695 -0.46508789 100.6328125 C-2.07770508 100.62507812 -2.07770508 100.62507812 -3.72290039 100.6171875 C-8.07436875 100.57378133 -12.00210927 100.50345336 -16.21508789 99.3828125 C-16.2382091 86.6224738 -16.25600184 73.86214005 -16.26690006 61.10178471 C-16.27212938 55.17730535 -16.2792279 49.25284028 -16.29052734 43.32836914 C-16.3013545 37.61608679 -16.30736436 31.90381822 -16.30996513 26.19152641 C-16.31181969 24.00692973 -16.31544089 21.82233385 -16.32081795 19.637743 C-16.3280261 16.58928901 -16.32907893 13.54089271 -16.32861328 10.49243164 C-16.33220856 9.57965454 -16.33580383 8.66687744 -16.33950806 7.72644043 C-16.3217119 -2.96631212 -9.12222217 0.02056726 0 0 Z " fill="#FFFEFD" transform="translate(333.215087890625,431.6171875)"/>
<path d="M0 0 C14.31338175 0.02636826 25.54270125 2.01580621 36.53125 11.91015625 C46.40708218 22.56698536 49.21772829 36.69321623 49.0625 50.75 C49.07410156 51.80058594 49.08570313 52.85117188 49.09765625 53.93359375 C49.04768254 67.40983678 45.06334242 80.39186837 35.77734375 90.4296875 C26.4579371 98.54715198 16.51398916 100.57347503 4.5625 100.4375 C3.47839844 100.43685547 2.39429687 100.43621094 1.27734375 100.43554688 C-3.11057098 100.41113944 -7.06392069 100.38361925 -11.3125 99.25 C-11.33562121 86.4896613 -11.35341395 73.72932755 -11.36431217 60.96897221 C-11.36954149 55.04449285 -11.37664001 49.12002778 -11.38793945 43.19555664 C-11.39876661 37.48327429 -11.40477647 31.77100572 -11.40737724 26.05871391 C-11.4092318 23.87411723 -11.412853 21.68952135 -11.41823006 19.5049305 C-11.42543821 16.45647651 -11.42649104 13.40808021 -11.42602539 10.35961914 C-11.42962067 9.44684204 -11.43321594 8.53406494 -11.43692017 7.59362793 C-11.42149165 -1.67653793 -8.25665563 0.02209273 0 0 Z " fill="#FEFEFE" transform="translate(124.3125,195.75)"/>
<path d="M0 0 C0.81726563 -0.01611328 1.63453125 -0.03222656 2.4765625 -0.04882812 C10.7552814 -0.05537774 18.42491095 1.91242545 24.875 7.3125 C29.6591075 12.97789046 29.41299303 18.52540546 29.19140625 25.7734375 C28.6577987 31.74193673 27.45537093 34.73212907 23.125 39.0625 C15.28985653 44.48683009 9.31390323 44.70789069 -0.0625 44.5 C-1.80370117 44.47969727 -1.80370117 44.47969727 -3.58007812 44.45898438 C-6.42887052 44.4238141 -9.27668844 44.37459287 -12.125 44.3125 C-12.19901579 38.36770371 -12.25353813 32.42317407 -12.28979492 26.47802734 C-12.30490526 24.45454234 -12.32539437 22.4310902 -12.35131836 20.40771484 C-12.38760328 17.50349835 -12.40470355 14.59971385 -12.41796875 11.6953125 C-12.43345261 10.78693634 -12.44893646 9.87856018 -12.46488953 8.94265747 C-12.46511612 8.10193695 -12.46534271 7.26121643 -12.46557617 6.39501953 C-12.47223801 5.65333527 -12.47889984 4.911651 -12.48576355 4.14749146 C-12.36671158 3.54194427 -12.24765961 2.93639709 -12.125 2.3125 C-8.02491744 -0.42088837 -4.81517536 -0.0184631 0 0 Z " fill="#FFFEFB" transform="translate(533.125,431.6875)"/>
<path d="M0 0 C26.15812918 0 26.15812918 0 33.3125 6.4375 C33.96863281 7.01371094 34.62476563 7.58992188 35.30078125 8.18359375 C40.11916773 13.33428274 39.47755096 19.41364104 39.3125 26.06640625 C38.78198216 32.74429961 36.85238127 36.10551916 32.25 40.8125 C21.33723397 48.15763098 14.17375402 46 0 46 C0 30.82 0 15.64 0 0 Z " fill="#FFFEFC" transform="translate(926,432)"/>
</svg>
